# AST/ASF file generated using VICON BodyLanguage
# -----------------------------------------------
:version 1.10
:name VICON
:units
  mass 1.0
  length 0.45
  angle deg
:documentation
   .ast/.asf automatically generated from VICON data using
   VICON BodyBuilder and BodyLanguage model FoxedUp or BRILLIANT.MOD
:root
   order TX TY TZ RX RY RZ
   axis XYZ
   position 0 0 0  
   orientation 0 0 0 
:bonedata
  begin
     id 1 
     name lhipjoint
     direction 0.624716 -0.669793 0.401383 
     length 2.38238 
     axis 0 0 0  XYZ
  end
  begin
     id 2 
     name lfemur
     direction 0.34202 -0.939693 0  
     length 6.4574  
     axis 0 0 20  XYZ
    dof rx ry rz
    limits (-160.0 20.0)
           (-70.0 70.0)
           (-60.0 70.0)
  end
  begin
     id 3 
     name ltibia
     direction 0.34202 -0.939693 0   
     length 7.68739   
     axis 0 0 20   XYZ
    dof rx
    limits (-10.0 170.0)
  end
  begin
     id 4 
     name lfoot
     direction 0.0681309 -0.187188 0.979959   
     length 2.46615   
     axis -90 7.62852e-016 20   XYZ
    dof rx rz
    limits (-45.0 90.0)
           (-70.0 20.0)
  end
  begin
     id 5 
     name ltoes
     direction 1.53566e-011 -4.21819e-011 1   
     length 1.2376   
     axis -90 7.62852e-016 20   XYZ
    dof rx
    limits (-90.0 20.0)
  end
  begin
     id 6 
     name rhipjoint
     direction -0.644473 -0.655875 0.393043   
     length 2.43293  
     axis 0 0 0  XYZ 
  end
  begin
     id 7 
     name rfemur
     direction -0.34202 -0.939693 0   
     length 6.7025   
     axis 0 0 -20   XYZ
    dof rx ry rz
    limits (-160.0 20.0)
           (-70.0 70.0)
           (-70.0 60.0)
  end
  begin
     id 8 
     name rtibia
     direction -0.34202 -0.939693 0   
     length 7.80547   
     axis 0 0 -20   XYZ
    dof rx
    limits (-10.0 170.0)
 end
 begin
     id 9 
     name rfoot
     direction -0.0756734 -0.207911 0.975216   
     length 2.40315  
     axis -90 -7.62852e-016 -20   XYZ
    dof rx rz
    limits (-45.0 90.0)
           (-20.0 70.0)
  end
  begin
     id 10 
     name rtoes
     direction -1.5353e-011 -4.21879e-011 1   
     length 1.20477   
     axis -90 -7.62852e-016 -20   XYZ
    dof rx
    limits (-90.0 20.0)
  end
  begin
     id 11 
     name lowerback
     direction 0.0160353 0.987463 -0.157037   
     length 2.18572   
     axis 0 0 0   XYZ
    dof rx ry rz
    limits (-20.0 45.0)
           (-30.0 30.0)
           (-30.0 30.0)
  end
  begin
     id 12 
     name upperback
     direction -0.00499661 0.999756 0.0215076   
     length 2.18016   
     axis 0 0 0   XYZ
    dof rx ry rz
    limits (-20.0 45.0)
           (-30.0 30.0)
           (-30.0 30.0)
  end
  begin
     id 13 
     name thorax
     direction -0.00921346 0.995333 0.0960619   
     length 2.24923   
     axis 0 0 0   XYZ
    dof rx ry rz
    limits (-20.0 45.0)
           (-30.0 30.0)
           (-30.0 30.0)
  end
  begin
     id 14 
     name lowerneck
     direction 0.0274184 0.991181 0.12965   
     length 1.70911   
     axis 0 0 0   XYZ
    dof rx ry rz
    limits (-20.0 45.0)
           (-30.0 30.0)
           (-30.0 30.0)
  end
  begin
     id 15 
     name upperneck
     direction 0.0015627 0.999959 -0.00893559   
     length 1.69312   
     axis 0 0 0   XYZ
    dof rx ry rz
    limits (-20.0 45.0)
           (-30.0 30.0)
           (-30.0 30.0)
  end
  begin
     id 16
     name head
     direction -0.00230242 0.999856 -0.0168327  
     length 1.80241  
     axis 0 0 0   XYZ
    dof rx ry rz
    limits (-20.0 45.0)
           (-30.0 30.0)
           (-30.0 30.0)
  end
  begin
     id 17 
     name lclavicle
     direction 0.955523 0.290741 -0.0494489  
     length 3.84275  
     axis 0 0 0   XYZ
    dof ry rz
    limits (-20.0 10.0)
           (0.0 20.0)
  end
  begin
     id 18 
     name lhumerus
     direction 1 -4.48967e-011 -3.18382e-028   
     length 5.17714   
     axis 180 -30 -90   XYZ
    dof rx ry rz
    limits (-60.0 90.0)
           (-90.0 90.0)
           (-90.0 90.0)
  end
  begin
     id 19
     name lradius
     direction 1 -4.48968e-011 -2.22911e-027   
     length 3.43679   
     axis 180 -30 -90   XYZ
    dof rx
    limits (-10.0 170.0)
  end
  begin
     id 20
     name lwrist
     direction 1 -4.48951e-011 -6.32245e-027   
     length 1.7184   
     axis 3.57107e-015 90 90   XYZ
    dof ry
    limits (-180.0 0.0)
 end
  begin
     id 21 
     name lhand
     direction 1 -4.48924e-011 -1.26431e-026   
     length 0.573117   
     axis 8.06912e-015 90 90   XYZ
    dof rx rz
    limits (-90.0 90.0)
           (-45.0 45.0)
  end
  begin
     id 22 
     name lfingers
     direction 1 -4.49001e-011 -2.52965e-026   
     length 0.462062   
     axis 1.61381e-014 90 90   XYZ
    dof rx
    limits (0.0 90.0)
  end
  begin
     id 23
     name lthumb
     direction 0.707107 -6.35008e-011 0.707107   
     length 0.663431   
     axis -90 45 -1.62303e-014   XYZ
    dof rx rz
    limits (-45.0 45.0)
           (-45.0 45.0)
  end
  begin
     id 24 
     name rclavicle
     direction -0.963917 0.256881 -0.0698287   
     length 3.73057  
     axis 0 0 0   XYZ 
    dof ry rz
    limits (-10.0 20.0)
           (-20.0 0.0)
  end
  begin
     id 25 
     name rhumerus
     direction -1 -4.48962e-011 -2.73982e-027  
     length 5.23908   
     axis 180 30 90   XYZ
    dof rx ry rz
    limits (-90.0 60.0)
           (-90.0 90.0)
           (-90.0 90.0)
  end
  begin
     id 26 
     name rradius
     direction -1 -4.48968e-011 -4.33218e-027   
     length 3.46485   
     axis 180 30 90   XYZ
    dof rx
    limits (-10.0 170.0)
  end
  begin
     id 27 
     name rwrist
     direction -1 -4.48989e-011 -6.32372e-027   
     length 1.73243   
     axis 3.57107e-015 -90 -90   XYZ
    dof ry
    limits (-180.0 0.0)
  end
  begin
     id 28
     name rhand
     direction -1 -4.48948e-011 -1.26448e-026   
     length 0.608752   
     axis 8.06912e-015 -90 -90   XYZ
    dof rx rz
    limits (-90.0 90.0)
           (-45.0 45.0)
  end
  begin
     id 29
     name rfingers
     direction -1 -4.48962e-011 -2.52913e-026   
     length 0.490792   
     axis 1.61381e-014 -90 -90   XYZ
    dof rx
    limits (0.0 90.0)
  end
  begin
     id 30
     name rthumb
     direction -0.707107 -6.34878e-011 0.707107   
     length 0.704682   
     axis -90 -45 1.62303e-014   XYZ
    dof rx rz
    limits (-45.0 45.0)
           (-45.0 45.0)
  end
:hierarchy
  begin
    root lhipjoint rhipjoint lowerback
    lhipjoint lfemur
    lfemur ltibia
    ltibia lfoot
    lfoot ltoes
    rhipjoint rfemur
    rfemur rtibia
    rtibia rfoot
    rfoot rtoes
    lowerback upperback
    upperback thorax
    thorax lowerneck lclavicle rclavicle
    lowerneck upperneck
    upperneck head
    lclavicle lhumerus
    lhumerus lradius
    lradius lwrist
    lwrist lhand lthumb
    lhand lfingers
    rclavicle rhumerus
    rhumerus rradius
    rradius rwrist
    rwrist rhand rthumb
    rhand rfingers
  end

#!OML:ASF G:\JayActor3\Patient Classification 1\Patient 1\Session 6\male.ASF
:FULLY-SPECIFIED
:DEGREES
52
root 50.5347 15.6062 -27.2888 6.30768 -62.9975 -8.90203
lowerback 0.675903 -0.000199154 2.04659
upperback 2.7678 -0.0299953 -0.341525
thorax 2.46007 0.0263399 -1.49809
lowerneck 0.638748 -1.01395 0.948805
upperneck -10.8211 -1.32086 1.26077
head -3.6015 -0.78989 0.294905
rclavicle 7.42958e-014 -7.95139e-015
rhumerus -34.7904 -13.3676 -81.8565
rradius 26.4844
rwrist 4.95438
rhand -21.064 -6.15149
rfingers 7.12502
rthumb 5.31257 -36.0649
lclavicle 7.42958e-014 -7.95139e-015
lhumerus -25.6421 9.61416 83.7519
lradius 23.1116
lwrist 18.2811
lhand -18.5441 7.57436
lfingers 7.12502
lthumb 7.74518 37.4125
rfemur -12.5471 0.249809 24.8275
rtibia 39.3151
rfoot -26.3451 -15.7777
rtoes 0.781231
lfemur -6.67795 13.5983 -18.563
ltibia 29.5089
lfoot -21.1909 4.83795
ltoes 0.398526
53
root 50.5353 15.6076 -27.2932 6.37948 -63.1109 -8.96366
lowerback 0.68482 -0.0102489 2.08378
upperback 2.76506 -0.0437736 -0.329052
thorax 2.45174 0.0199988 -1.50632
lowerneck 0.640231 -0.993824 0.965037
upperneck -10.7799 -1.29457 1.24261
head -3.58762 -0.776247 0.28495
rclavicle -3.60297e-014 6.36111e-015
rhumerus -34.7454 -13.193 -81.9849
rradius 26.7027
rwrist 4.70353
rhand -21.0873 -6.13528
rfingers 7.12502
rthumb 5.29007 -36.0492
lclavicle -3.60297e-014 6.36111e-015
lhumerus -25.7848 9.94034 83.6325
lradius 22.83
lwrist 18.0233
lhand -18.4988 7.61014
lfingers 7.12502
lthumb 7.78892 37.4467
rfemur -12.5433 0.331794 24.8647
rtibia 39.2495
rfoot -26.3106 -15.7932
rtoes 0.781289
lfemur -6.67573 13.5252 -18.56
ltibia 29.4864
lfoot -21.2029 5.02691
ltoes 0.388369
54
root 50.536 15.6091 -27.2978 6.43934 -63.218 -9.01512
lowerback 0.692025 -0.0184889 2.11652
upperback 2.76654 -0.0552043 -0.317467
thorax 2.44879 0.0148137 -1.51294
lowerneck 0.63592 -0.980261 0.983097
upperneck -10.731 -1.27695 1.22612
head -3.56989 -0.766931 0.275418
rclavicle -9.79014e-015 -4.77083e-015
rhumerus -34.6938 -13.0154 -82.1152
rradius 26.9282
rwrist 4.44998
rhand -21.1096 -6.12034
rfingers 7.12502
rthumb 5.26849 -36.0348
lclavicle -9.79014e-015 -4.77083e-015
lhumerus -25.9254 10.2578 83.5123
lradius 22.555
lwrist 17.7626
lhand -18.4621 7.66806
lfingers 7.12502
lthumb 7.8243 37.5033
rfemur -12.5397 0.403537 24.8966
rtibia 39.189
rfoot -26.2708 -15.8118
rtoes 0.755795
lfemur -6.6684 13.4434 -18.5616
ltibia 29.4581
lfoot -21.21 5.21985
ltoes 0.372522
55
root 50.5367 15.6108 -27.3026 6.4832 -63.3172 -9.04999
lowerback 0.695467 -0.0257281 2.14025
upperback 2.77199 -0.0653723 -0.306772
thorax 2.45209 0.0101565 -1.51541
lowerneck 0.619134 -0.974025 1.00104
upperneck -10.6614 -1.26877 1.2157
head -3.54252 -0.762228 0.267961
rclavicle -3.3694e-014 1.03368e-014
rhumerus -34.6372 -12.8334 -82.2468
rradius 27.1616
rwrist 4.20001
rhand -21.1265 -6.10981
rfingers 7.12502
rthumb 5.25219 -36.0247
lclavicle -3.3694e-014 1.03368e-014
lhumerus -26.0625 10.5691 83.391
lradius 22.2858
lwrist 17.4969
lhand -18.4296 7.73077
lfingers 7.12502
lthumb 7.85571 37.5648
rfemur -12.5379 0.464726 24.9207
rtibia 39.1332
rfoot -26.228 -15.8316
rtoes 0.713653
lfemur -6.65786 13.3493 -18.5715
ltibia 29.4225
lfoot -21.2112 5.41768
ltoes 0.354789
56
root 50.5375 15.6126 -27.3077 6.50959 -63.4084 -9.06595
lowerback 0.696636 -0.032698 2.15381
upperback 2.77984 -0.0751759 -0.297315
thorax 2.45914 0.00552456 -1.51345
lowerneck 0.585458 -0.975061 1.01689
upperneck -10.5612 -1.26974 1.21489
head -3.50117 -0.761915 0.263959
rclavicle -1.50082e-014 1.03368e-014
rhumerus -34.5806 -12.6458 -82.3793
rradius 27.4048
rwrist 3.95768
rhand -21.1355 -6.10578
rfingers 7.12502
rthumb 5.24348 -36.0209
lclavicle -1.50082e-014 1.03368e-014
lhumerus -26.1976 10.8775 83.2661
lradius 22.0203
lwrist 17.2197
lhand -18.3899 7.76904
lfingers 7.12502
lthumb 7.89399 37.6017
rfemur -12.5382 0.515612 24.9361
rtibia 39.0812
rfoot -26.1849 -15.8482
rtoes 0.669789
lfemur -6.64518 13.2426 -18.5907
ltibia 29.3799
lfoot -21.2059 5.62083
ltoes 0.332732
57
root 50.5382 15.6146 -27.313 6.51874 -63.4922 -9.06396
lowerback 0.699793 -0.0399341 2.15921
upperback 2.78749 -0.085175 -0.290147
thorax 2.46484 0.000625105 -1.50927
lowerneck 0.534039 -0.982403 1.02981
upperneck -10.425 -1.27841 1.22606
head -3.44389 -0.765233 0.264216
rclavicle -6.66426e-014 -1.51076e-014
rhumerus -34.5293 -12.4527 -82.5136
rradius 27.6579
rwrist 3.72353
rhand -21.1353 -6.10984
rfingers 7.12502
rthumb 5.24373 -36.025
lclavicle -6.66426e-014 -1.51076e-014
lhumerus -26.3331 11.191 83.1311
lradius 21.7532
lwrist 16.9153
lhand -18.3279 7.7499
lfingers 7.12502
lthumb 7.95388 37.5803
rfemur -12.5386 0.556649 24.9434
rtibia 39.0315
rfoot -26.1441 -15.8563
rtoes 0.639975
lfemur -6.6301 13.1254 -18.6182
ltibia 29.3318
lfoot -21.1959 5.82664
ltoes 0.31277
58
root 50.5388 15.6166 -27.3185 6.51401 -63.5693 -9.04931
lowerback 0.707548 -0.0476916 2.15985
upperback 2.79393 -0.0956599 -0.285208
thorax 2.46668 -0.00464699 -1.5047
lowerneck 0.468101 -0.994431 1.04033
upperneck -10.258 -1.29278 1.24728
head -3.37319 -0.771193 0.267979
rclavicle -2.27111e-014 8.74653e-015
rhumerus -34.4838 -12.2536 -82.6501
rradius 27.9174
rwrist 3.49763
rhand -21.1297 -6.11951
rfingers 7.12502
rthumb 5.24916 -36.0345
lclavicle -2.27111e-014 8.74653e-015
lhumerus -26.4697 11.5183 82.9804
lradius 21.4788
lwrist 16.5661
lhand -18.229 7.64602
lfingers 7.12502
lthumb 8.04937 37.4727
rfemur -12.5361 0.58887 24.9451
rtibia 38.9827
rfoot -26.1082 -15.8515
rtoes 0.637031
lfemur -6.61194 13.0031 -18.65
ltibia 29.2808
lfoot -21.1828 6.0319
ltoes 0.291668
59
root 50.5392 15.6186 -27.3241 6.5007 -63.6414 -9.02961
lowerback 0.720455 -0.0558742 2.15937
upperback 2.79901 -0.106535 -0.28164
thorax 2.4642 -0.0101798 -1.50091
lowerneck 0.39664 -1.00823 1.04922
upperneck -10.0751 -1.3093 1.27349
head -3.29613 -0.778068 0.273513
rclavicle 7.00716e-015 -4.77083e-015
rhumerus -34.4434 -12.0492 -82.7884
rradius 28.1792
rwrist 3.27917
rhand -21.1229 -6.1322
rfingers 7.12502
rthumb 5.25564 -36.047
lclavicle 7.00716e-015 -4.77083e-015
lhumerus -26.6074 11.8685 82.8104
lradius 21.1937
lwrist 16.1592
lhand -18.085 7.44454
lfingers 7.12502
lthumb 8.18827 37.2659
rfemur -12.5275 0.613512 24.9449
rtibia 38.9333
rfoot -26.0775 -15.833
rtoes 0.663419
lfemur -6.58958 12.8808 -18.6814
ltibia 29.2297
lfoot -21.1696 6.23207
ltoes 0.274711
60
root 50.5392 15.6205 -27.3297 6.48459 -63.71 -9.01202
lowerback 0.736329 -0.0637229 2.16056
upperback 2.80362 -0.116905 -0.277972
thorax 2.45959 -0.015454 -1.49793
lowerneck 0.332255 -1.02131 1.05811
upperneck -9.89922 -1.32507 1.29713
head -3.22314 -0.784533 0.278255
rclavicle 3.42904e-014 -1.86858e-014
rhumerus -34.4056 -11.8409 -82.9263
rradius 28.4384
rwrist 3.06818
rhand -21.1213 -6.14421
rfingers 7.12502
rthumb 5.25724 -36.059
lclavicle 3.42904e-014 -1.86858e-014
lhumerus -26.7454 12.2385 82.6245
lradius 20.901
lwrist 15.704
lhand -17.9061 7.1615
lfingers 7.12502
lthumb 8.36093 36.976
rfemur -12.5108 0.63195 24.9458
rtibia 38.8821
rfoot -26.0509 -15.8016
rtoes 0.716013
lfemur -6.56288 12.763 -18.7083
ltibia 29.1814
lfoot -21.1586 6.42532
ltoes 0.261019
61
root 50.5388 15.6222 -27.3351 6.47195 -63.7763 -9.00315
lowerback 0.749652 -0.0708157 2.16452
upperback 2.81043 -0.126454 -0.271465
thorax 2.45873 -0.0202411 -1.49359
lowerneck 0.281873 -1.03162 1.06618
upperneck -9.74724 -1.33775 1.31236
head -3.16129 -0.789443 0.280591
rclavicle 1.42628e-014 7.95139e-016
rhumerus -34.366 -11.6288 -83.0609
rradius 28.6914
rwrist 2.86582
rhand -21.1296 -6.15046
rfingers 7.12502
rthumb 5.24919 -36.0654
lclavicle 1.42628e-014 7.95139e-016
lhumerus -26.8804 12.6186 82.4335
lradius 20.6107
lwrist 15.2318
lhand -17.7179 6.83172
lfingers 7.12502
lthumb 8.5426 36.6389
rfemur -12.4858 0.645554 24.9509
rtibia 38.8288
rfoot -26.0271 -15.7601
rtoes 0.787025
lfemur -6.53241 12.6501 -18.7281
ltibia 29.1379
lfoot -21.1526 6.61146
ltoes 0.257143
62
root 50.5381 15.6237 -27.3404 6.46804 -63.8409 -9.00707
lowerback 0.75721 -0.0768449 2.1724
upperback 2.82014 -0.134892 -0.260787
thorax 2.46416 -0.0243539 -1.48715
lowerneck 0.248625 -1.03817 1.07312
upperneck -9.62802 -1.34619 1.31615
head -3.11413 -0.792262 0.279679
rclavicle -3.40916e-014 7.55382e-015
rhumerus -34.3245 -11.4141 -83.1898
rradius 28.9376
rwrist 2.67127
rhand -21.1483 -6.15077
rfingers 7.12502
rthumb 5.2312 -36.0662
lclavicle -3.40916e-014 7.55382e-015
lhumerus -27.0128 12.9815 82.2534
lradius 20.3422
lwrist 14.7993
lhand -17.5587 6.51782
lfingers 7.12502
lthumb 8.69618 36.3187
rfemur -12.4543 0.655432 24.9619
rtibia 38.7732
rfoot -26.0041 -15.7119
rtoes 0.868732
lfemur -6.50024 12.5415 -18.7397
ltibia 29.1
lfoot -21.1523 6.79171
ltoes 0.263678
63
root 50.5371 15.6251 -27.3455 6.47471 -63.9027 -9.02341
lowerback 0.75694 -0.0817863 2.18427
upperback 2.83251 -0.142231 -0.245901
thorax 2.47679 -0.0277839 -1.47864
lowerneck 0.230251 -1.04164 1.07925
upperneck -9.53979 -1.35125 1.30859
head -3.08054 -0.793424 0.275503
rclavicle 3.2551e-014 5.96354e-015
rhumerus -34.2824 -11.2006 -83.3114
rradius 29.1769
rwrist 2.48564
rhand -21.175 -6.14444
rfingers 7.12502
rthumb 5.20536 -36.0605
lclavicle 3.2551e-014 5.96354e-015
lhumerus -27.1442 13.2913 82.1019
lradius 20.1175
lwrist 14.4721
lhand -17.4731 6.2869
lfingers 7.12502
lthumb 8.77882 36.0843
rfemur -12.4193 0.661816 24.9787
rtibia 38.7158
rfoot -25.981 -15.6608
rtoes 0.953608
lfemur -6.46919 12.4336 -18.7445
ltibia 29.0679
lfoot -21.1576 6.96861
ltoes 0.280983
64
root 50.5358 15.6264 -27.3506 6.49233 -63.9595 -9.04989
lowerback 0.749883 -0.0855412 2.20061
upperback 2.84493 -0.148226 -0.228594
thorax 2.49335 -0.0304182 -1.47015
lowerneck 0.223499 -1.04379 1.08624
upperneck -9.47352 -1.355 1.29262
head -3.05676 -0.794001 0.268697
rclavicle 1.52567e-014 -3.97569e-016
rhumerus -34.2435 -10.9952 -83.425
rradius 29.4094
rwrist 2.30877
rhand -21.2054 -6.1347
rfingers 7.12502
rthumb 5.17606 -36.0515
lclavicle 1.52567e-014 -3.97569e-016
lhumerus -27.2788 13.5176 81.9899
lradius 19.9538
lwrist 14.2934
lhand -17.4846 6.18754
lfingers 7.12502
lthumb 8.76771 35.9854
rfemur -12.384 0.665394 25.0008
rtibia 38.657
rfoot -25.958 -15.611
rtoes 1.03605
lfemur -6.44227 12.3235 -18.7443
ltibia 29.0406
lfoot -21.1663 7.14363
ltoes 0.304195
65
root 50.5344 15.6277 -27.3557 6.51924 -64.0086 -9.08274
lowerback 0.739324 -0.0880528 2.22198
upperback 2.85335 -0.152577 -0.211707
thorax 2.50784 -0.0321382 -1.46489
lowerneck 0.22581 -1.04664 1.09673
upperneck -9.41691 -1.35974 1.27238
head -3.03805 -0.795167 0.260089
rclavicle -5.52124e-014 9.54166e-015
rhumerus -34.2125 -10.8059 -83.5309
rradius 29.6336
rwrist 2.14101
rhand -21.2344 -6.12539
rfingers 7.12502
rthumb 5.14806 -36.0429
lclavicle -5.52124e-014 9.54166e-015
lhumerus -27.4235 13.6426 81.9189
lradius 19.8603
lwrist 14.275
lhand -17.5929 6.24384
lfingers 7.12502
lthumb 8.66319 36.0461
rfemur -12.3511 0.667537 25.0276
rtibia 38.5975
rfoot -25.9361 -15.5674
rtoes 1.1112
lfemur -6.42159 12.2095 -18.741
ltibia 29.0166
lfoot -21.1758 7.31622
ltoes 0.328908
66
root 50.5326 15.629 -27.3609 6.55146 -64.0486 -9.11651
lowerback 0.727178 -0.0889635 2.24701
upperback 2.85494 -0.154628 -0.197637
thorax 2.51626 -0.0326699 -1.46453
lowerneck 0.236858 -1.05199 1.11301
upperneck -9.36108 -1.36746 1.25099
head -3.02131 -0.79797 0.250279
rclavicle -3.86636e-014 7.15625e-015
rhumerus -34.1902 -10.6396 -83.6291
rradius 29.8445
rwrist 1.98543
rhand -21.2608 -6.11802
rfingers 7.12502
rthumb 5.12258 -36.0361
lclavicle -3.86636e-014 7.15625e-015
lhumerus -27.5814 13.6814 81.8769
lradius 19.8273
lwrist 14.3726
lhand -17.7584 6.42374
lfingers 7.12502
lthumb 8.50349 36.2325
rfemur -12.3219 0.669818 25.0573
rtibia 38.5378
rfoot -25.9167 -15.5338
rtoes 1.17536
lfemur -6.40787 12.0916 -18.7363
ltibia 28.9945
lfoot -21.1836 7.48464
ltoes 0.350993
